<svg xmlns="http://www.w3.org/2000/svg" width="152.871" height="38.471" viewBox="0 0 152.871 38.471">
    <defs>
        <style>
            .cls-1{fill:#f2f2f2}.cls-2{fill:#a4a4a4}.cls-3{fill:gray}.cls-4{clip-path:url(#clip-path)}.cls-5{fill:#a3a3a3}.cls-6{clip-path:url(#clip-path-2)}.cls-7{fill:#858585}.cls-8{fill:#9e9e9e}.cls-9{clip-path:url(#clip-path-3)}.cls-10{fill:#999}.cls-11{clip-path:url(#clip-path-4)}.cls-12{clip-path:url(#clip-path-5)}.cls-13,.cls-15{fill:#c1272d}.cls-13,.cls-14{fill-rule:evenodd}.cls-14{fill:url(#linear-gradient)}
        </style>
        <clipPath id="clip-path">
            <path id="Path_300" d="M273.11 46.27l.652 1.06c.063.1.121.205.179.313l-.652-1.06c-.058-.105-.118-.21-.179-.313z" data-name="Path 300" transform="translate(-273.11 -46.27)"/>
        </clipPath>
        <clipPath id="clip-path-2">
            <path id="Path_310" d="M352.74 53.84l.652 1.06a3.1 3.1 0 0 1 .418 1.16l-.652-1.06a3.086 3.086 0 0 0-.418-1.16z" data-name="Path 310" transform="translate(-352.74 -53.84)"/>
        </clipPath>
        <clipPath id="clip-path-3">
            <path id="Path_319" d="M381.044 74.427l-.652-1.06a2.9 2.9 0 0 1-.355-1.61 5.045 5.045 0 0 1 .055-.708l.652 1.06a4.708 4.708 0 0 0-.055.708 2.9 2.9 0 0 0 .355 1.61z" data-name="Path 319" transform="translate(-380.035 -71.05)"/>
        </clipPath>
        <clipPath id="clip-path-4">
            <path id="Path_341" d="M566.23 51.76l.652 1.06a3.209 3.209 0 0 1 .426 1.186l-.652-1.06a3.21 3.21 0 0 0-.426-1.186z" data-name="Path 341" transform="translate(-566.23 -51.76)"/>
        </clipPath>
        <clipPath id="clip-path-5">
            <path id="Path_344" d="M536.823 96.17l-.652-1.06a2.347 2.347 0 0 1-.321-1l.652 1.06a2.312 2.312 0 0 0 .321 1z" data-name="Path 344" transform="translate(-535.85 -94.11)"/>
        </clipPath>
        <linearGradient id="linear-gradient" x1=".433" x2="-.178" y1="-.184" y2=".66" gradientUnits="objectBoundingBox">
            <stop offset="0" stop-color="#ed1c24"/>
            <stop offset=".112" stop-color="#ed1c24"/>
            <stop offset="1" stop-color="#f91d1d"/>
        </linearGradient>
    </defs>
    <g id="Group_281" data-name="Group 281" transform="translate(.005 .003)">
        <g id="Group_327" data-name="Group 327" transform="translate(42.364 7.866)">
            <g id="Group_284" data-name="Group 284" transform="translate(0 8.104)">
                <g id="Group_281-2" data-name="Group 281">
                    <path id="Path_296" d="M169.919 60.72l-.389 1.941-8.459.076.395-1.941z" class="cls-1" data-name="Path 296" transform="translate(-161.07 -60.72)"/>
                </g>
                <g id="Group_282" data-name="Group 282" transform="translate(8.459)">
                    <path id="Path_297" d="M193.619 60.72l.652 1.057-.389 1.941-.652-1.057z" class="cls-2" data-name="Path 297" transform="translate(-193.23 -60.72)"/>
                </g>
                <g id="Group_283" data-name="Group 283" transform="translate(0 1.941)">
                    <path id="Path_298" d="M169.529 68.1l.652 1.057-8.459.079-.652-1.06z" class="cls-3" data-name="Path 298" transform="translate(-161.07 -68.1)"/>
                </g>
            </g>
            <g id="Group_288" data-name="Group 288" transform="translate(15.812 1.794)">
                <g id="Group_286" data-name="Group 286" transform="translate(13.659 2.51)">
                    <g id="Group_285" class="cls-4" data-name="Group 285">
                        <path id="Path_299" d="M273.11 46.27l.652 1.06c.063.1.121.205.179.313l-.652-1.06c-.058-.105-.118-.21-.179-.313" class="cls-5" data-name="Path 299" transform="translate(-273.11 -46.27)"/>
                    </g>
                </g>
                <path id="Path_301" d="M240.062 47.6l-.652-1.06a3.232 3.232 0 0 0-.466-.589 3.891 3.891 0 0 0-2.93-1.055 5.516 5.516 0 0 0-2.551.639 5.712 5.712 0 0 0-.374.218l-.1.063a4.609 4.609 0 0 0-.308.216.342.342 0 0 1-.039.026l-.011.008a5.09 5.09 0 0 0-.331.279l-.082.076a5.75 5.75 0 0 0-.26.258c-.013.016-.029.029-.045.045l-.021.024c-.055.06-.105.121-.158.184l-.079.092c-.076.095-.15.192-.224.292-.032.045-.063.087-.092.132l-.039.063c-.053.079-.105.16-.155.245-.021.037-.045.074-.066.11a6.199 6.199 0 0 0-.187.35l-.008.013a7.044 7.044 0 0 0-.189.423l-.047.118a9.5 9.5 0 0 0-.134.368.593.593 0 0 0-.021.063l-.008.026c-.026.084-.05.168-.074.255-.011.042-.024.084-.037.126a6.38 6.38 0 0 0-.155.763l-.008.047c0 .018 0 .039-.005.058a3.717 3.717 0 0 0-.024.239c0 .037-.008.071-.011.11a7.088 7.088 0 0 0-.018.368 4.3 4.3 0 0 0 .558 2.383l.652 1.06a4.251 4.251 0 0 1-.558-2.383c0-.126.011-.25.018-.368 0-.037.005-.074.011-.11l.024-.239c.005-.037.011-.071.013-.105q.028-.193.063-.371a13.3 13.3 0 0 1 .092-.392c.011-.042.024-.084.037-.126.024-.084.047-.171.074-.253l.032-.089c.042-.126.087-.247.132-.368l.047-.118c.058-.145.121-.284.189-.423a.057.057 0 0 1 .008-.013c.058-.118.121-.237.187-.35.021-.037.045-.074.066-.11.05-.082.1-.163.153-.245.045-.066.087-.132.132-.195.071-.1.147-.2.224-.292l.079-.092c.053-.061.105-.124.158-.181.021-.024.042-.045.063-.066.084-.089.171-.176.258-.258.026-.026.053-.05.082-.076.108-.1.216-.189.331-.279l.05-.037c.1-.076.2-.147.308-.216.032-.021.063-.042.1-.063a6.29 6.29 0 0 1 .374-.218 5.515 5.515 0 0 1 2.551-.639 3.891 3.891 0 0 1 2.93 1.055 3.135 3.135 0 0 1 .25.281 1.678 1.678 0 0 1 .224.3z" class="cls-5" data-name="Path 301" transform="translate(-227.794 -42.75)"/>
                <g id="Group_287" data-name="Group 287">
                    <path id="Path_302" d="M235.017 39.551a6.4 6.4 0 0 1 .679 3.164 9.163 9.163 0 0 1-.182 1.636 8.906 8.906 0 0 1-1.562 3.612 8.256 8.256 0 0 1-6.686 3.393 6.769 6.769 0 0 1-3.306-.718 4.945 4.945 0 0 1-2.1-2.083 6.28 6.28 0 0 1-.679-3.146 9.741 9.741 0 0 1 .2-1.7 8.739 8.739 0 0 1 1.57-3.6 8.422 8.422 0 0 1 2.9-2.47 8.2 8.2 0 0 1 3.775-.913 6.751 6.751 0 0 1 3.288.718 4.941 4.941 0 0 1 2.103 2.107zm-1.794 4.543a6.46 6.46 0 0 0 .132-1.215 3.613 3.613 0 0 0-3.951-4 5.515 5.515 0 0 0-2.551.639 5.765 5.765 0 0 0-2.02 1.776 6.994 6.994 0 0 0-1.149 2.686 6.375 6.375 0 0 0-.132 1.194 3.89 3.89 0 0 0 1.021 2.97 3.93 3.93 0 0 0 2.951 1.052 5.447 5.447 0 0 0 2.538-.639 5.906 5.906 0 0 0 2.02-1.776 6.634 6.634 0 0 0 1.142-2.683" class="cls-1" data-name="Path 302" transform="translate(-221.182 -36.729)"/>
                </g>
                <path id="Path_303" d="M238.7 52.166c.011-.158.021-.318.024-.481a6.4 6.4 0 0 0-.679-3.164l-.652-1.06a6.4 6.4 0 0 1 .679 3.164c0 .163-.013.324-.024.481 0 .05-.008.1-.013.147-.011.11-.021.221-.034.329-.005.05-.013.1-.021.15-.026.179-.053.355-.089.529s-.074.352-.118.526l-.047.168c-.032.116-.063.229-.1.342l-.05.147c-.047.145-.1.289-.155.431-.021.058-.045.113-.068.171-.063.15-.129.3-.2.445l-.047.1a8.824 8.824 0 0 1-.263.489l-.071.118c-.071.121-.147.239-.226.355s-.142.213-.218.316c-.1.132-.195.258-.3.381-.034.042-.071.079-.105.121-.068.082-.137.16-.208.239a8.262 8.262 0 0 1-.97.894l-.068.055a8.423 8.423 0 0 1-.537.374c-.042.029-.087.055-.129.082a8.94 8.94 0 0 1-.581.334 8.266 8.266 0 0 1-3.788.913 6.769 6.769 0 0 1-3.306-.718 4.938 4.938 0 0 1-1.933-1.8l.652 1.06a4.956 4.956 0 0 0 1.933 1.8 6.828 6.828 0 0 0 3.306.718 8.341 8.341 0 0 0 3.788-.913c.2-.1.392-.216.581-.334.045-.026.087-.055.129-.082a7.49 7.49 0 0 0 .534-.374.055.055 0 0 1 .016-.011c.018-.013.034-.032.053-.045.142-.11.279-.226.413-.347l.118-.108c.15-.142.3-.287.439-.439l.005-.005c.071-.076.137-.155.2-.234.034-.039.071-.079.105-.121.1-.124.2-.25.3-.381.061-.082.121-.166.176-.25.013-.021.026-.045.042-.066a7.5 7.5 0 0 0 .224-.355c.024-.039.05-.079.071-.118.092-.16.182-.324.263-.489 0-.008.008-.013.011-.021a.895.895 0 0 0 .034-.079 8.49 8.49 0 0 0 .2-.445c.024-.055.045-.113.068-.171.055-.142.108-.287.155-.431.011-.034.026-.068.037-.1l.013-.047.1-.342.047-.171c.045-.174.084-.347.118-.526s.063-.35.089-.529c0-.024.008-.045.011-.066l.008-.082c.013-.108.024-.218.034-.329a.64.64 0 0 0 .024-.145z" class="cls-3" data-name="Path 303" transform="translate(-223.554 -44.637)"/>
            </g>
            <g id="Group_293" data-name="Group 293" transform="translate(31.856 4.779)">
                <g id="Group_289" data-name="Group 289" transform="translate(4.169 .221)">
                    <path id="Path_304" d="M298.469 48.92l.652 1.057-.439 2.186-.652-1.057z" class="cls-2" data-name="Path 304" transform="translate(-298.03 -48.92)"/>
                </g>
                <g id="Group_290" data-name="Group 290" transform="translate(8.249)">
                    <path id="Path_305" d="M314.05 48.08l.652 1.057-.51 2.512-.652-1.06z" class="cls-2" data-name="Path 305" transform="translate(-313.54 -48.08)"/>
                </g>
                <g id="Group_291" data-name="Group 291" transform="translate(.003)">
                    <path id="Path_306" d="M290.947 48.08l-.51 2.509-.7.005a4.608 4.608 0 0 0-2.622.763A3.649 3.649 0 0 0 285.7 53.8l-1.155 5.645-2.359.021 2.244-11.148 2.359-.021-.439 2.186a5.964 5.964 0 0 1 2-1.747 5.474 5.474 0 0 1 2.597-.656z" class="cls-1" data-name="Path 306" transform="translate(-282.19 -48.08)"/>
                </g>
                <path id="Path_307" d="M297.047 57.62l-.7.005a4.588 4.588 0 0 0-2.622.763l-.118.087c-.034.026-.066.055-.1.082s-.042.034-.06.053a2.097 2.097 0 0 0-.2.2s0 .005-.005.008a3.3 3.3 0 0 0-.25.316l-.024.029c-.013.021-.024.045-.037.063a2.785 2.785 0 0 0-.174.3c-.011.021-.026.042-.037.063s-.018.042-.029.063c-.018.039-.037.079-.053.118a4.296 4.296 0 0 0-.084.208l-.047.129-.026.076a6.332 6.332 0 0 0-.047.163l-.032.113q-.047.181-.087.379l-1.155 5.645.652 1.06 1.155-5.645c.026-.132.055-.255.087-.376l.032-.113c.024-.082.047-.163.074-.239l.047-.132c.026-.071.055-.139.084-.208.018-.039.034-.082.053-.121l.063-.126q.083-.158.174-.3c.021-.032.039-.063.061-.092a3 3 0 0 1 .25-.316c.066-.074.137-.139.208-.205.021-.018.042-.034.06-.053.071-.058.139-.116.216-.168a4.608 4.608 0 0 1 2.624-.766l.7-.005z" class="cls-2" data-name="Path 307" transform="translate(-288.798 -55.111)"/>
                <g id="Group_292" data-name="Group 292" transform="translate(0 11.371)">
                    <path id="Path_308" d="M284.539 91.31l.652 1.06-2.359.021-.652-1.06z" class="cls-3" data-name="Path 308" transform="translate(-282.18 -91.31)"/>
                </g>
            </g>
            <g id="Group_299" data-name="Group 299" transform="translate(40.806 1.015)">
                <g id="Group_295" data-name="Group 295" transform="translate(9.611 5.279)">
                    <g id="Group_294" class="cls-6" data-name="Group 294">
                        <path id="Path_309" d="M352.74 53.84l.652 1.06a3.1 3.1 0 0 1 .418 1.16l-.652-1.06a3.086 3.086 0 0 0-.418-1.16" class="cls-5" data-name="Path 309" transform="translate(-352.74 -53.84)"/>
                    </g>
                </g>
                <path id="Path_311" d="M332.881 57.9l-.652-1.06a2.213 2.213 0 0 0-.339-.429 2.767 2.767 0 0 0-2.075-.75c-.124 0-.247.008-.366.018-.039 0-.079.011-.118.013a3.07 3.07 0 0 0-.374.061 2.851 2.851 0 0 0-.208.047l-.139.039a2.052 2.052 0 0 0-.192.063 2.044 2.044 0 0 0-.137.053 2.91 2.91 0 0 0-.318.145c-.06.029-.118.063-.176.095a3.416 3.416 0 0 0-.3.192l-.118.084-.039.029a4.552 4.552 0 0 0-.216.179 4.643 4.643 0 0 0-.3.295l-.026.024c-.055.06-.105.121-.158.184l-.042.047a4.07 4.07 0 0 0-.195.263l-.013.021c-.018.026-.034.055-.053.084a5.034 5.034 0 0 0-.132.218c-.021.037-.042.076-.061.116s-.042.076-.06.116-.024.058-.037.084c-.024.053-.05.108-.071.163s-.053.129-.079.195-.042.113-.06.171l-.032.089c-.016.047-.029.1-.042.147l-.032.11a5.57 5.57 0 0 0-.089.376 4.06 4.06 0 0 0-.06.342l-.008.066c0 .026-.005.053-.008.082a5.17 5.17 0 0 0-.026.421 2.886 2.886 0 0 0 .376 1.615l.652 1.06a2.908 2.908 0 0 1-.376-1.615c0-.145.013-.284.026-.421l.008-.079a3.521 3.521 0 0 1 .068-.41c.026-.129.058-.253.089-.376l.032-.11c.024-.079.047-.158.074-.237.018-.058.039-.116.06-.171s.05-.132.079-.195l.071-.163c.032-.068.066-.134.1-.2l.061-.116c.042-.074.087-.147.132-.218.018-.029.034-.058.053-.084.066-.1.134-.192.208-.281l.039-.047a2.748 2.748 0 0 1 .184-.208 3.559 3.559 0 0 1 .3-.295c.084-.074.171-.142.258-.208l.118-.084c.058-.039.113-.079.171-.116l.126-.076c.058-.034.116-.066.176-.095.045-.024.089-.045.134-.066.06-.029.121-.053.182-.079.045-.018.092-.037.137-.053.063-.024.129-.042.192-.063.047-.013.092-.029.139-.039.068-.018.137-.032.208-.047a1.142 1.142 0 0 1 .137-.026q.118-.02.237-.032c.039-.005.079-.011.118-.013a4.9 4.9 0 0 1 .366-.018 2.767 2.767 0 0 1 2.075.75 2.7 2.7 0 0 1 .184.205 1.49 1.49 0 0 1 .158.218z" class="cls-5" data-name="Path 311" transform="translate(-323.073 -49.902)"/>
                <path id="Path_312" d="M326.97 82.671a8.45 8.45 0 0 0 .126-.171c.016-.024.034-.045.05-.068s.018-.032.029-.047a5.63 5.63 0 0 0 .237-.384l-.652-1.06a5.342 5.342 0 0 1-.445.673c-.042.055-.063.082-.1.124l-.139.163a6.672 6.672 0 0 1-.366.374.238.238 0 0 1-.026.024 4.863 4.863 0 0 1-.394.324c-.147.11-.3.218-.463.318a5.327 5.327 0 0 1-2.778.773 3.967 3.967 0 0 1-3.041-1.163 3.508 3.508 0 0 1-.463-.6l.652 1.06a3.647 3.647 0 0 0 .463.6 3.967 3.967 0 0 0 3.041 1.163 5.265 5.265 0 0 0 3.241-1.092l.047-.032.032-.026a6.39 6.39 0 0 0 .318-.266.238.238 0 0 1 .026-.024c.092-.084.182-.174.266-.266a.408.408 0 0 0 .034-.034l.063-.074c.047-.053.095-.108.139-.163s.071-.084.103-.126z" class="cls-7" data-name="Path 312" transform="translate(-317.933 -68.533)"/>
                <g id="Group_296" data-name="Group 296">
                    <path id="Path_313" d="M327.528 33.791l2.359-.021-3.03 14.975-2.359.021.534-2.591a5.38 5.38 0 0 1-4.7 2.77 3.967 3.967 0 0 1-3.041-1.163 4.372 4.372 0 0 1-1.084-3.264 9.309 9.309 0 0 1 .176-1.436 7.544 7.544 0 0 1 1.247-2.951 6.306 6.306 0 0 1 2.178-1.928 5.856 5.856 0 0 1 2.736-.692 3.994 3.994 0 0 1 2.541.723 2.99 2.99 0 0 1 1.155 1.968zm-1.878 9.39a6.314 6.314 0 0 0 .1-.808 2.731 2.731 0 0 0-.731-2.094 2.767 2.767 0 0 0-2.075-.75 4.019 4.019 0 0 0-2.7 1.015 5.18 5.18 0 0 0-1.589 3.612 2.618 2.618 0 0 0 .713 2.036 2.825 2.825 0 0 0 2.078.708 4.07 4.07 0 0 0 2.691-1.026 4.717 4.717 0 0 0 1.515-2.694" class="cls-1" data-name="Path 313" transform="translate(-316.203 -33.77)"/>
                </g>
                <g id="Group_297" data-name="Group 297" transform="translate(10.655)">
                    <path id="Path_314" d="M359.74 33.77l.652 1.06-3.03 14.97-.652-1.06z" class="cls-2" data-name="Path 314" transform="translate(-356.71 -33.77)"/>
                </g>
                <g id="Group_298" data-name="Group 298" transform="translate(8.295 14.975)">
                    <path id="Path_315" d="M350.1 90.7l.652 1.06-2.362.021-.65-1.057z" class="cls-3" data-name="Path 315" transform="translate(-347.74 -90.7)"/>
                </g>
            </g>
            <g id="Group_304" data-name="Group 304" transform="translate(55.339 4.613)">
                <path id="Path_316" d="M388.081 56.581l-.652-1.06a1.823 1.823 0 0 0-.4-.455 2.809 2.809 0 0 0-1.865-.587 4 4 0 0 0-2.47.852 4.145 4.145 0 0 0-.25.21l-.071.071c-.045.045-.092.089-.137.137a.275.275 0 0 0-.024.029c-.021.024-.039.047-.061.071-.05.058-.1.116-.142.176l-.063.087a4.47 4.47 0 0 0-.126.19l-.055.087c-.055.095-.11.192-.16.292-.053.108-.1.221-.15.337-.016.039-.029.079-.042.118a5.373 5.373 0 0 0-.082.226c0 .005 0 .011-.005.016a6.07 6.07 0 0 0-.113.408l.652 1.06c.034-.139.071-.276.113-.408.026-.084.055-.163.087-.242.013-.039.026-.079.042-.118.047-.116.095-.229.15-.337.05-.1.1-.2.16-.292l.055-.087q.059-.1.126-.189l.063-.087c.047-.061.095-.121.145-.176.021-.024.039-.047.061-.071.053-.058.105-.11.16-.163.024-.024.047-.05.071-.071q.122-.11.253-.213a4.034 4.034 0 0 1 2.47-.852 2.809 2.809 0 0 1 1.865.587 1.886 1.886 0 0 1 .221.213 1.656 1.656 0 0 1 .176.239z" class="cls-8" data-name="Path 316" transform="translate(-378.644 -52.63)"/>
                <g id="Group_301" data-name="Group 301" transform="translate(2.257 6.208)">
                    <g id="Group_300" class="cls-9" data-name="Group 300">
                        <path id="Path_317" d="M380.206 71.05l.652 1.06-.016.108-.652-1.06.016-.108" class="cls-8" data-name="Path 317" transform="translate(-380.149 -71.05)"/>
                        <path id="Path_318" d="M380.076 71.46l.652 1.06a5.813 5.813 0 0 0-.039.6 2.9 2.9 0 0 0 .355 1.61l-.652-1.06a2.9 2.9 0 0 1-.355-1.61 5.813 5.813 0 0 1 .039-.6" class="cls-5" data-name="Path 318" transform="translate(-380.035 -71.352)"/>
                    </g>
                </g>
                <g id="Group_302" data-name="Group 302" transform="translate(2.314 6.129)">
                    <path id="Path_320" d="M388.957 70.75l.65 1.057-8.7.082-.652-1.06z" class="cls-3" data-name="Path 320" transform="translate(-380.25 -70.75)"/>
                </g>
                <path id="Path_321" d="M413.985 57.992a2.86 2.86 0 0 0 .013-.253 4.107 4.107 0 0 0-.495-2.128 4.32 4.32 0 0 0-.071-.121l-.652-1.06.071.121a4.1 4.1 0 0 1 .495 2.128c0 .082-.008.166-.013.253 0 .029-.005.06-.008.089-.005.06-.013.124-.021.189 0 .026-.008.055-.011.082a7.933 7.933 0 0 1-.071.439c-.029.118-.055.231-.084.339a.933.933 0 0 1-.026.092c-.021.079-.045.155-.066.226-.008.026-.016.055-.026.082q-.043.134-.087.253l.652 1.06q.043-.118.087-.253c0-.008.005-.016.008-.026l.016-.055c.024-.074.045-.15.068-.229a7.645 7.645 0 0 0 .11-.431 6.31 6.31 0 0 0 .047-.274l.013-.082c.008-.045.013-.089.018-.129a.16.16 0 0 0 0-.034c.008-.066.016-.126.021-.189l.012-.089z" class="cls-10" data-name="Path 321" transform="translate(-401.91 -52.594)"/>
                <g id="Group_303" data-name="Group 303">
                    <path id="Path_322" d="M382.395 49.406a4.1 4.1 0 0 1 .495 2.128 6.7 6.7 0 0 1-.126 1.05 7.908 7.908 0 0 1-.289.992l-8.7.082a4.7 4.7 0 0 0-.055.708 2.489 2.489 0 0 0 .681 2 2.683 2.683 0 0 0 1.9.639 3.885 3.885 0 0 0 2.1-.6 3.273 3.273 0 0 0 1.318-1.568l2.507-.024a6.186 6.186 0 0 1-2.346 2.93 6.768 6.768 0 0 1-3.843 1.144 4.645 4.645 0 0 1-3.38-1.16 4.14 4.14 0 0 1-1.2-3.262 7.833 7.833 0 0 1 .155-1.355 7.178 7.178 0 0 1 1.32-2.991 6.672 6.672 0 0 1 2.375-1.962 6.973 6.973 0 0 1 3.043-.7 5.456 5.456 0 0 1 2.491.5 3.63 3.63 0 0 1 1.554 1.449zm-1.97 3.141a3.726 3.726 0 0 0 .121-.889 2.089 2.089 0 0 0-.708-1.773 2.809 2.809 0 0 0-1.865-.587 4 4 0 0 0-2.47.852 4.191 4.191 0 0 0-1.484 2.457l6.4-.06" class="cls-1" data-name="Path 322" transform="translate(-371.453 -47.449)"/>
                </g>
                <path id="Path_323" d="M384.128 77.379c.026-.045.05-.095.076-.139.039-.074.082-.145.118-.218l.016-.037c.076-.158.147-.318.213-.484l-.652-1.06a6.167 6.167 0 0 1-.347.739c-.026.047-.05.095-.076.139-.063.11-.132.218-.2.324-.013.018-.024.039-.037.058a5.318 5.318 0 0 1-.271.366l-.087.1c-.068.082-.137.166-.21.245q-.174.185-.363.363c-.026.024-.055.045-.082.068a6.037 6.037 0 0 1-.673.528 6.768 6.768 0 0 1-3.843 1.144 4.645 4.645 0 0 1-3.38-1.16 3.613 3.613 0 0 1-.6-.734l.652 1.06a3.612 3.612 0 0 0 .6.734 4.649 4.649 0 0 0 3.38 1.16 6.768 6.768 0 0 0 3.843-1.144c.11-.076.216-.153.321-.231a.333.333 0 0 0 .034-.029c.111-.087.216-.176.318-.266.026-.024.055-.045.082-.071.126-.116.247-.237.363-.36l.016-.016c.068-.074.132-.153.2-.229l.087-.1q.142-.178.268-.363a.625.625 0 0 0 .034-.055 5.73 5.73 0 0 0 .2-.332z" class="cls-7" data-name="Path 323" transform="translate(-373.131 -68.077)"/>
            </g>
            <g id="Group_309" data-name="Group 309" transform="translate(68.192 4.443)">
                <g id="Group_305" data-name="Group 305" transform="translate(4.167 .221)">
                    <path id="Path_324" d="M436.6 47.64l.652 1.06-.439 2.186-.65-1.06z" class="cls-2" data-name="Path 324" transform="translate(-436.16 -47.64)"/>
                </g>
                <g id="Group_306" data-name="Group 306" transform="translate(8.246)">
                    <path id="Path_325" d="M452.18 46.8l.65 1.06-.508 2.509-.652-1.06z" class="cls-2" data-name="Path 325" transform="translate(-451.67 -46.8)"/>
                </g>
                <g id="Group_307" data-name="Group 307" transform="translate(.003)">
                    <path id="Path_326" d="M429.084 46.8l-.51 2.509-.7.005a4.6 4.6 0 0 0-2.622.763 3.629 3.629 0 0 0-1.41 2.446l-1.155 5.645-2.359.021 2.246-11.15 2.359-.021-.433 2.182a5.989 5.989 0 0 1 2-1.747 5.5 5.5 0 0 1 2.584-.653z" class="cls-1" data-name="Path 326" transform="translate(-420.33 -46.8)"/>
                </g>
                <path id="Path_327" d="M435.169 56.34l-.7.005a4.6 4.6 0 0 0-2.622.763l-.124.089c-.042.031-.063.053-.095.079l-.063.053a2.968 2.968 0 0 0-.205.2s0 .005-.005.005a2.992 2.992 0 0 0-.25.316l-.024.029c-.013.021-.024.045-.037.063a4.73 4.73 0 0 0-.174.3c-.011.021-.026.042-.037.063s-.018.042-.029.063c-.018.039-.034.079-.053.118a4.296 4.296 0 0 0-.129.337c-.008.024-.018.047-.026.074-.018.055-.032.11-.047.168l-.032.113q-.047.181-.087.379l-1.15 5.643.652 1.06 1.155-5.645c.024-.132.055-.255.087-.379.01-.039.021-.076.032-.113.024-.082.047-.163.074-.242.016-.045.029-.087.045-.129.026-.071.055-.139.084-.208.018-.039.034-.079.053-.118s.042-.084.066-.126a2.746 2.746 0 0 1 .174-.3l.06-.095a3.294 3.294 0 0 1 .25-.316 2.581 2.581 0 0 1 .21-.205l.063-.053c.071-.058.142-.116.216-.168a4.6 4.6 0 0 1 2.622-.763l.7-.005z" class="cls-2" data-name="Path 327" transform="translate(-426.923 -53.831)"/>
                <g id="Group_308" data-name="Group 308" transform="translate(0 11.371)">
                    <path id="Path_328" d="M422.679 90.03l.652 1.06-2.362.021-.65-1.057z" class="cls-3" data-name="Path 328" transform="translate(-420.32 -90.03)"/>
                </g>
            </g>
            <g id="Group_311" data-name="Group 311" transform="translate(79.437)">
                <g id="Group_310" data-name="Group 310">
                    <path id="Path_329" d="M465.818 30.207a.971.971 0 0 1 .318.784 1.491 1.491 0 0 1-.529 1.136 1.889 1.889 0 0 1-1.27.458 1.35 1.35 0 0 1-.947-.295.97.97 0 0 1-.321-.786 1.5 1.5 0 0 1 .539-1.115 1.872 1.872 0 0 1 1.284-.479 1.317 1.317 0 0 1 .926.297z" class="cls-1" data-name="Path 329" transform="translate(-463.068 -29.91)"/>
                </g>
                <path id="Path_330" d="M467.149 33.655v-.011a1.342 1.342 0 0 0 .013-.181 1.028 1.028 0 0 0-.142-.573l-.652-1.06a1.022 1.022 0 0 1 .142.573c0 .063-.005.121-.013.181 0 .011 0 .021-.005.032a1.538 1.538 0 0 1-.05.224l-.008.032a2.23 2.23 0 0 1-.071.176l-.024.042c-.021.039-.045.079-.068.118a.534.534 0 0 1-.034.047 1.211 1.211 0 0 1-.105.132l-.024.029a1.444 1.444 0 0 1-.129.124 1.7 1.7 0 0 1-.2.142c-.037.024-.074.05-.113.074a1.342 1.342 0 0 1-.176.082c-.039.016-.076.034-.116.05a1.95 1.95 0 0 1-.213.055l-.108.026a2.141 2.141 0 0 1-.35.029 1.35 1.35 0 0 1-.947-.295 1.041 1.041 0 0 1-.179-.213l.652 1.06a.975.975 0 0 0 .179.213 1.35 1.35 0 0 0 .947.295 2.165 2.165 0 0 0 .35-.029c.037-.005.071-.018.108-.026a1.8 1.8 0 0 0 .213-.055.9.9 0 0 0 .116-.05c.06-.026.118-.05.176-.082a1.042 1.042 0 0 0 .113-.074c.034-.024.071-.042.1-.066s.063-.05.092-.076c.045-.039.087-.082.129-.124l.008-.008.016-.021a1.641 1.641 0 0 0 .105-.132l.018-.024a.227.227 0 0 0 .016-.026c.026-.039.047-.079.068-.118.005-.011.013-.021.018-.032s0-.008.005-.011a2.23 2.23 0 0 0 .071-.176s0-.005.005-.011 0-.013.005-.021a1.53 1.53 0 0 0 .05-.224.038.038 0 0 0 .012-.017z" class="cls-7" data-name="Path 330" transform="translate(-463.445 -31.325)"/>
            </g>
            <g id="Group_315" data-name="Group 315" transform="translate(76.894 4.585)">
                <g id="Group_312" data-name="Group 312">
                    <path id="Path_331" d="M453.4 58.511l2.246-11.15 2.359-.021-2.265 11.15z" class="cls-1" data-name="Path 331" transform="translate(-453.4 -47.34)"/>
                </g>
                <g id="Group_313" data-name="Group 313" transform="translate(2.341)">
                    <path id="Path_332" d="M464.565 47.34l.652 1.057-2.265 11.153-.652-1.06z" class="cls-2" data-name="Path 332" transform="translate(-462.3 -47.34)"/>
                </g>
                <g id="Group_314" data-name="Group 314" transform="translate(0 11.15)">
                    <path id="Path_333" d="M455.741 89.73l.652 1.06-2.344.021-.65-1.06z" class="cls-3" data-name="Path 333" transform="translate(-453.4 -89.73)"/>
                </g>
            </g>
            <g id="Group_320" data-name="Group 320" transform="translate(82.56 4.311)">
                <g id="Group_316" data-name="Group 316" transform="translate(4.119 .221)">
                    <path id="Path_334" d="M491.089 47.14l.65 1.057-.487 2.47-.652-1.06z" class="cls-2" data-name="Path 334" transform="translate(-490.6 -47.14)"/>
                </g>
                <path id="Path_335" d="M490.976 54.668a1.7 1.7 0 0 0-.295-.36 2.477 2.477 0 0 0-1.781-.579c-.11 0-.221.008-.326.016-.037 0-.071.008-.105.013a2.794 2.794 0 0 0-.21.029l-.121.024a3.306 3.306 0 0 0-.184.042c-.042.011-.082.024-.124.037-.058.018-.116.034-.171.055l-.121.047c-.055.021-.11.045-.163.071s-.079.037-.118.058-.105.055-.158.087a2.156 2.156 0 0 0-.111.066c-.053.032-.1.068-.155.1-.034.024-.068.047-.1.074l-.032.024c-.066.053-.132.105-.2.163a3.525 3.525 0 0 0-.247.242l-.008.008c-.066.074-.131.15-.192.229l-.05.068c-.032.042-.063.082-.092.126l-.039.063-.063.1a3.442 3.442 0 0 0-.108.189l-.058.105-.029.053-.055.124c-.018.042-.053.11-.076.168s-.047.121-.068.181l-.066.181c-.005.018-.013.034-.018.053l-.055.187c-.011.039-.024.079-.034.121q-.043.166-.079.339l-.008-.016-1.2 5.989.652 1.06 1.2-5.945.008.013c.026-.132.058-.26.089-.387.01-.039.024-.079.034-.118a5.56 5.56 0 0 1 .14-.42c.024-.06.045-.124.068-.181s.05-.113.076-.168.055-.118.084-.176c.018-.037.037-.071.058-.105.034-.063.071-.126.108-.189l.063-.1c.042-.066.087-.129.132-.189l.05-.068a2.845 2.845 0 0 1 .2-.234c.079-.084.16-.166.247-.242s.153-.126.229-.187l.1-.074c.05-.037.1-.071.153-.1s.074-.045.113-.066.1-.058.155-.084l.118-.058.163-.071.121-.047c.055-.021.113-.039.171-.055l.124-.037c.06-.016.124-.029.184-.042.039-.008.079-.018.121-.024a4.43 4.43 0 0 1 .21-.029c.034-.005.071-.011.105-.013.108-.011.216-.016.326-.016a2.473 2.473 0 0 1 1.781.579 1.683 1.683 0 0 1 .295.36z" class="cls-8" data-name="Path 335" transform="translate(-481.58 -51.775)"/>
                <g id="Group_317" data-name="Group 317" transform="translate(0 11.371)">
                    <path id="Path_336" d="M477.3 89.53l.652 1.06-2.362.021-.65-1.06z" class="cls-3" data-name="Path 336" transform="translate(-474.94 -89.53)"/>
                </g>
                <path id="Path_337" d="M517.676 55.2c.008-.113.016-.226.018-.337a5.7 5.7 0 0 0-.018-.608 3.4 3.4 0 0 0-.463-1.494l-.652-1.06a3.792 3.792 0 0 1 .481 2.1c0 .11-.008.224-.018.337 0 .037-.008.074-.01.11-.008.079-.016.158-.026.237l-.016.1c-.024.16-.05.321-.084.487l-1.3 6.5.652 1.06 1.3-6.5c.034-.166.06-.326.084-.487 0-.018.008-.037.011-.055s0-.032.005-.047c.01-.079.018-.158.026-.237.002-.034.007-.071.01-.106z" class="cls-2" data-name="Path 337" transform="translate(-504.898 -50.279)"/>
                <g id="Group_318" data-name="Group 318" transform="translate(8.354 11.295)">
                    <path id="Path_338" d="M509.041 89.24l.652 1.057-2.341.024-.652-1.06z" class="cls-3" data-name="Path 338" transform="translate(-506.7 -89.24)"/>
                </g>
                <g id="Group_319" data-name="Group 319" transform="translate(.005)">
                    <path id="Path_339" d="M483.588 46.3a3.542 3.542 0 0 1 2.607.9 3.362 3.362 0 0 1 .9 2.625 7.209 7.209 0 0 1-.15 1.276l-1.3 6.5-2.341.021 1.252-6.252a3.833 3.833 0 0 0 .1-.808 2.162 2.162 0 0 0-.608-1.723 2.477 2.477 0 0 0-1.781-.579 3.544 3.544 0 0 0-2.4.9 4.521 4.521 0 0 0-1.349 2.586v-.061l-1.2 5.989-2.359.021 2.246-11.15 2.359-.021-.487 2.467a4.924 4.924 0 0 1 1.883-1.975 5.193 5.193 0 0 1 2.628-.716z" class="cls-1" data-name="Path 339" transform="translate(-474.96 -46.299)"/>
                </g>
            </g>
            <g id="Group_326" data-name="Group 326" transform="translate(96.259 4.221)">
                <g id="Group_322" data-name="Group 322" transform="translate(10.314 1.526)">
                    <g id="Group_321" class="cls-11" data-name="Group 321">
                        <path id="Path_340" d="M566.23 51.76l.652 1.06a3.209 3.209 0 0 1 .426 1.186l-.652-1.06a3.21 3.21 0 0 0-.426-1.186" class="cls-5" data-name="Path 340" transform="translate(-566.23 -51.76)"/>
                    </g>
                </g>
                <path id="Path_342" d="M546.37 55.946l-.652-1.06a2.417 2.417 0 0 0-.355-.447 2.774 2.774 0 0 0-2.065-.75c-.124 0-.247.008-.368.018-.039 0-.079.011-.118.013a3.07 3.07 0 0 0-.237.032c-.045.008-.089.018-.137.026a3.256 3.256 0 0 0-.208.047l-.139.039a2.867 2.867 0 0 0-.329.114q-.091.036-.182.079l-.134.063c-.058.029-.118.06-.174.095l-.126.074c-.058.037-.113.074-.171.113a2.862 2.862 0 0 0-.118.084c-.013.011-.029.018-.042.029a3.795 3.795 0 0 0-.21.174c-.105.092-.2.189-.3.289l-.024.024c-.06.066-.121.137-.176.208a.167.167 0 0 1-.021.024 3.468 3.468 0 0 0-.184.253c-.005.011-.013.018-.018.029-.021.029-.039.063-.058.092a2.99 2.99 0 0 0-.186.326l-.055.1a1.311 1.311 0 0 0-.042.095 3.613 3.613 0 0 0-.15.361l-.063.174a.744.744 0 0 0-.029.082c-.016.053-.032.105-.045.158-.011.037-.024.076-.034.116a5.867 5.867 0 0 0-.149.728l-.008.063-.008.079a5.622 5.622 0 0 0-.029.423 2.886 2.886 0 0 0 .376 1.615l.652 1.06a2.908 2.908 0 0 1-.376-1.615c0-.145.013-.284.029-.423l.008-.079c.016-.139.039-.276.066-.41s.058-.258.089-.381a5.56 5.56 0 0 1 .108-.355l.063-.174c.021-.056.05-.132.076-.195s.047-.11.074-.166.063-.132.1-.2c.021-.039.039-.079.063-.116a2.99 2.99 0 0 1 .126-.21c.018-.032.039-.063.058-.092.066-.1.132-.189.2-.279a.174.174 0 0 1 .021-.024 4.369 4.369 0 0 1 .5-.518 3.36 3.36 0 0 1 .253-.2l.118-.084c.055-.039.113-.076.171-.113.042-.026.084-.05.126-.074q.087-.051.174-.095.067-.035.134-.063l.181-.079c.045-.018.092-.037.137-.053.063-.024.126-.042.192-.06.047-.013.092-.029.139-.039.068-.018.137-.032.208-.047.045-.011.089-.018.134-.026q.118-.02.237-.032c.039-.005.079-.011.118-.013.121-.011.242-.016.368-.018a2.774 2.774 0 0 1 2.065.75 2.424 2.424 0 0 1 .192.213 1.458 1.458 0 0 1 .166.229z" class="cls-5" data-name="Path 342" transform="translate(-535.867 -51.656)"/>
                <g id="Group_324" data-name="Group 324" transform="translate(2.323 12.666)">
                    <g id="Group_323" class="cls-12" data-name="Group 323">
                        <path id="Path_343" d="M535.85 94.12l.652 1.06a2.323 2.323 0 0 0 .321 1l-.652-1.06a2.324 2.324 0 0 1-.321-1" class="cls-5" data-name="Path 343" transform="translate(-535.85 -94.117)"/>
                    </g>
                </g>
                <path id="Path_345" d="M540.438 80.716c.045-.058.087-.116.129-.176.016-.024.034-.045.05-.066s.018-.032.029-.047c.084-.126.166-.255.239-.387l-.652-1.06a5.013 5.013 0 0 1-.239.387l-.079.116c-.042.061-.087.118-.129.176l-.095.121a3.88 3.88 0 0 1-.145.168c-.031.037-.063.071-.095.105-.095.1-.192.2-.295.295l-.026.024a4.964 4.964 0 0 1-.3.25c-.029.024-.061.045-.089.068a6.346 6.346 0 0 1-.431.3 5.243 5.243 0 0 1-2.778.781 3.978 3.978 0 0 1-3.062-1.165 3.538 3.538 0 0 1-.463-.6l.652 1.06a3.649 3.649 0 0 0 .463.6 3.988 3.988 0 0 0 3.062 1.165 5.261 5.261 0 0 0 2.778-.781c.15-.095.295-.195.431-.3a.553.553 0 0 1 .05-.034l.039-.032c.1-.082.2-.163.3-.25l.026-.024c.1-.095.2-.192.295-.295a.294.294 0 0 0 .029-.029c.024-.024.042-.053.066-.076.05-.055.1-.11.145-.168.032-.047.063-.086.095-.126z" class="cls-7" data-name="Path 345" transform="translate(-530.697 -70.294)"/>
                <g id="Group_325" data-name="Group 325">
                    <path id="Path_346" d="M538.291 46.08l2.317-.021-2.27 11.274a7.162 7.162 0 0 1-1.194 2.767 6.251 6.251 0 0 1-2.21 1.91 6.433 6.433 0 0 1-2.959.713 5.28 5.28 0 0 1-3.609-1.076 3.99 3.99 0 0 1-1.347-3l2.317-.021a2.134 2.134 0 0 0 .8 1.539 3.15 3.15 0 0 0 2 .537 3.875 3.875 0 0 0 2.462-.871 4.07 4.07 0 0 0 1.391-2.475l.555-2.715a5.456 5.456 0 0 1-1.923 2.01 5.244 5.244 0 0 1-2.778.781 3.979 3.979 0 0 1-3.062-1.165 4.383 4.383 0 0 1-1.084-3.283 9.3 9.3 0 0 1 .176-1.436 7.657 7.657 0 0 1 1.249-2.959 6.248 6.248 0 0 1 2.188-1.939 5.906 5.906 0 0 1 2.746-.692 3.986 3.986 0 0 1 2.538.723 3 3 0 0 1 1.155 1.989zm-1.134 5.566a3.736 3.736 0 0 0 .1-.829 2.679 2.679 0 0 0-.744-2.073 2.774 2.774 0 0 0-2.065-.75 4.019 4.019 0 0 0-2.693 1 4.73 4.73 0 0 0-1.478 2.709 4.944 4.944 0 0 0-.1.91 2.618 2.618 0 0 0 .713 2.036 2.829 2.829 0 0 0 2.078.708 4.049 4.049 0 0 0 2.672-1.026 4.676 4.676 0 0 0 1.518-2.691" class="cls-1" data-name="Path 346" transform="translate(-527.02 -45.959)"/>
                </g>
                <path id="Path_347" d="M540.6 59.061c.034-.129.066-.263.092-.4l2.27-11.274-.652-1.06-2.274 11.273c-.029.134-.058.266-.092.4-.01.042-.024.084-.037.126-.024.087-.047.174-.076.258a.745.745 0 0 1-.029.082 8.204 8.204 0 0 1-.187.505 6.852 6.852 0 0 1-.4.818c-.021.037-.045.074-.066.11-.055.089-.11.179-.168.268-.045.068-.089.137-.139.205q-.111.154-.229.3c-.026.032-.055.063-.082.095a13.71 13.71 0 0 1-.163.189c-.013.016-.029.029-.045.045q-.142.15-.292.292l-.095.087c-.108.1-.221.192-.337.281l-.024.018c-.129.1-.266.195-.405.284l-.1.066a6.714 6.714 0 0 1-.437.253 6.433 6.433 0 0 1-2.959.713 5.28 5.28 0 0 1-3.609-1.076 3.728 3.728 0 0 1-.744-.873l.652 1.06a3.78 3.78 0 0 0 .744.873 5.253 5.253 0 0 0 3.609 1.076 6.434 6.434 0 0 0 2.959-.713c.15-.079.295-.166.437-.253.034-.021.068-.042.1-.066.139-.089.276-.184.405-.284h.005a.112.112 0 0 0 .018-.016c.116-.089.226-.184.337-.281l.095-.087c.1-.095.2-.189.292-.292a.419.419 0 0 0 .034-.034l.011-.011c.055-.061.11-.126.166-.189.026-.032.055-.061.082-.095q.118-.146.229-.3l.1-.139c.013-.021.026-.045.042-.066a4.31 4.31 0 0 0 .168-.268c.021-.037.045-.074.066-.11a5.24 5.24 0 0 0 .205-.384.009.009 0 0 1 0-.005l.013-.029c.063-.132.124-.263.179-.4l.05-.124a6.6 6.6 0 0 0 .137-.379.553.553 0 0 0 .021-.061l.008-.024c.026-.084.05-.171.074-.258a.883.883 0 0 1 .041-.126z" class="cls-7" data-name="Path 347" transform="translate(-528.715 -46.232)"/>
            </g>
        </g>
        <g id="Group_328" data-name="Group 328" transform="translate(-.005 -.002)">
            <path id="Path_348" d="M43.94 63.758l2.17 1.415 25.212-9.988-2.175-1.415z" class="cls-13" data-name="Path 348" transform="translate(-32.381 -39.626)"/>
            <path id="Path_349" d="M137.39 86.95l2.207.831.668-12.739-2.175-1.412z" class="cls-13" data-name="Path 349" transform="translate(-101.25 -54.262)"/>
            <path id="Path_350" d="M57.428 116.06a18.655 18.655 0 0 1-18.434 6.25 18.119 18.119 0 0 1-5.884-2.354.429.429 0 0 0-.061-.029 24.123 24.123 0 0 0 7.218 3.441 19.155 19.155 0 0 0 19.265-5.824c-.449-.319-1.117-.79-2.104-1.484z" class="cls-13" data-name="Path 350" transform="translate(-24.355 -85.531)"/>
            <path id="Path_351" d="M115.922 21.557l2.175 1.415c-2.17-5.248-5.49-10.172-10.687-12.913 4.201 2.571 6.6 6.708 8.512 11.498z" class="cls-13" data-name="Path 351" transform="translate(-79.156 -7.413)"/>
            <path id="Path_352" d="M36.835 19.366c-12.315 5.15-12.276 5.153-12.276 5.153l3.106 2.2a21.66 21.66 0 0 1-1.576 1.491 12.263 12.263 0 0 1-8.609 2.541A12.335 12.335 0 0 1 6.286 16.767a11.975 11.975 0 0 1 3.272-6.892 13.04 13.04 0 0 1 3.875-2.815c5.282-2.491 12.35-.986 15.225 4.069-9.212 3.471-13.989 5.262-16.758 6.306l-.35 6.694 25.207-9.988C34.055 7.361 30.377 1.887 21.989.319a18.549 18.549 0 0 0-20.3 10.45C-3.2 21.349 2.927 34.332 14.635 36.776a18.657 18.657 0 0 0 18.434-6.25l3.07 2.157z" class="cls-14" data-name="Path 352" transform="translate(.005 .002)"/>
            <path id="Path_353" d="M26.886 30.8a12.716 12.716 0 0 1 16.953-5.7c-.239-.205-.487-.4-.744-.584a18.394 18.394 0 0 0-1.61-.942c-.234-.11-.471-.218-.71-.313a.321.321 0 0 1-.045-.018 12.876 12.876 0 0 0-10.024.313 13.04 13.04 0 0 0-3.875 2.815 11.935 11.935 0 0 0-3.272 6.892 12.476 12.476 0 0 0 1.862 8.388 12.258 12.258 0 0 0 2.551 2.817 16.23 16.23 0 0 0 1.82 1.247l.016.011c.176.1.355.195.534.287A12.347 12.347 0 0 1 26.886 30.8z" class="cls-15" data-name="Path 353" transform="translate(-17.271 -16.492)"/>
        </g>
    </g>
</svg>
